<svg width="275" height="62" viewBox="0 0 275 62" fill="none" xmlns="http://www.w3.org/2000/svg">
<path d="M29.1253 37H25.122V21.2584C25.122 19.9693 25.2012 18.3917 25.3595 16.5258H25.2917C25.0429 17.5888 24.8224 18.3521 24.6301 18.8158L17.37 37H14.5881L7.31101 18.9515C7.10745 18.42 6.89259 17.6114 6.66642 16.5258H6.59856C6.68903 17.4983 6.73427 19.0872 6.73427 21.2924V37H3.00243V12.6752H8.685L15.08 28.8748C15.5663 30.1187 15.8829 31.046 16.0299 31.6567H16.1147C16.5332 30.3788 16.8724 29.4289 17.1325 28.8069L23.6463 12.6752H29.1253V37ZM53.8402 27.1615C53.8402 33.9919 50.606 37.4071 44.1374 37.4071C37.9403 37.4071 34.8418 34.122 34.8418 27.5517V12.6752H38.8789V26.7205C38.8789 31.4927 40.7336 33.8788 44.4428 33.8788C48.0163 33.8788 49.803 31.5775 49.803 26.9749V12.6752H53.8402V27.1615ZM79.098 37H75.0438V26.4491H63.5939V37H59.5567V12.6752H63.5939V22.9038H75.0438V12.6752H79.098V37ZM105.085 37H100.658L98.4696 30.8085H88.9025L86.7991 37H82.3888L91.4978 12.6752H96.0439L105.085 37ZM97.4009 27.5177L94.0253 17.815C93.9235 17.4983 93.8161 16.9894 93.703 16.2883H93.6352C93.5334 16.9329 93.4203 17.4418 93.2959 17.815L89.9542 27.5177H97.4009ZM108.444 37V12.6752H116.162C118.514 12.6752 120.374 13.1898 121.743 14.2188C123.122 15.2479 123.812 16.588 123.812 18.239C123.812 19.6187 123.422 20.8174 122.642 21.8352C121.861 22.8529 120.781 23.5767 119.402 24.0064V24.0743C121.075 24.2665 122.41 24.8885 123.405 25.9402C124.411 26.9806 124.915 28.3376 124.915 30.0113C124.915 32.0921 124.095 33.7771 122.455 35.0662C120.815 36.3554 118.746 37 116.247 37H108.444ZM112.464 15.9151V22.836H115.076C116.479 22.836 117.575 22.508 118.367 21.8521C119.17 21.1849 119.571 20.2463 119.571 19.0363C119.571 16.9555 118.18 15.9151 115.399 15.9151H112.464ZM112.464 26.0759V33.7771H115.907C117.411 33.7771 118.571 33.4321 119.385 32.7423C120.21 32.0412 120.623 31.08 120.623 29.8586C120.623 27.3368 118.876 26.0759 115.382 26.0759H112.464ZM129.444 37V12.6752H137.162C139.514 12.6752 141.374 13.1898 142.743 14.2188C144.122 15.2479 144.812 16.588 144.812 18.239C144.812 19.6187 144.422 20.8174 143.642 21.8352C142.861 22.8529 141.781 23.5767 140.402 24.0064V24.0743C142.076 24.2665 143.41 24.8885 144.405 25.9402C145.412 26.9806 145.915 28.3376 145.915 30.0113C145.915 32.0921 145.095 33.7771 143.455 35.0662C141.815 36.3554 139.746 37 137.247 37H129.444ZM133.464 15.9151V22.836H136.076C137.479 22.836 138.576 22.508 139.367 21.8521C140.17 21.1849 140.571 20.2463 140.571 19.0363C140.571 16.9555 139.181 15.9151 136.399 15.9151H133.464ZM133.464 26.0759V33.7771H136.907C138.412 33.7771 139.571 33.4321 140.385 32.7423C141.21 32.0412 141.623 31.08 141.623 29.8586C141.623 27.3368 139.876 26.0759 136.382 26.0759H133.464ZM170.426 37H165.999L163.811 30.8085H154.244L152.14 37H147.73L156.839 12.6752H161.385L170.426 37ZM162.742 27.5177L159.366 17.815C159.265 17.4983 159.157 16.9894 159.044 16.2883H158.976C158.874 16.9329 158.761 17.4418 158.637 17.815L155.295 27.5177H162.742ZM188 16.1017H181.011V37H176.974V16.1017H170.002V12.6752H188V16.1017Z" fill="#242426"/>
<path d="M217.719 14.4394L204.386 33.5905H217.549V37H198.737V35.151L212.121 16.1017H199.772V12.6752H217.719V14.4394ZM225.657 37H221.501V12.6752H225.657V37ZM248.608 12.6752L240.636 28.1623V37H236.598V28.2471L228.829 12.6752H233.426L238.21 23.1074C238.266 23.2318 238.436 23.7011 238.719 24.5153H238.77C238.871 24.1534 239.058 23.6841 239.329 23.1074L244.333 12.6752H248.608ZM261.025 37.4071C257.519 37.4071 254.709 36.2706 252.594 33.9976C250.491 31.7245 249.439 28.7673 249.439 25.126C249.439 21.2132 250.514 18.092 252.662 15.7625C254.811 13.4329 257.729 12.2681 261.415 12.2681C264.83 12.2681 267.578 13.399 269.659 15.6607C271.751 17.9224 272.797 20.8796 272.797 24.5323C272.797 28.5016 271.729 31.6397 269.591 33.9467C267.454 36.2536 264.598 37.4071 261.025 37.4071ZM261.212 15.8133C258.984 15.8133 257.169 16.6445 255.766 18.3069C254.376 19.9693 253.68 22.1575 253.68 24.8715C253.68 27.5743 254.359 29.7512 255.716 31.4022C257.073 33.0533 258.848 33.8788 261.042 33.8788C263.372 33.8788 265.209 33.0929 266.555 31.521C267.901 29.9491 268.573 27.7496 268.573 24.9224C268.573 22.0161 267.918 19.7714 266.606 18.1882C265.305 16.605 263.507 15.8133 261.212 15.8133Z" fill="#32D74B"/>
<path d="M200.158 59.0642H198.745V50.7949H200.158V59.0642ZM206.778 59.0642H202.199V50.7949H203.572V57.9051H206.778V59.0642ZM216.858 59.0642H215.497V53.7128C215.497 53.2745 215.524 52.7382 215.578 52.1039H215.555C215.47 52.4653 215.395 52.7248 215.33 52.8824L212.862 59.0642H211.916L209.442 52.9285C209.373 52.7479 209.3 52.473 209.223 52.1039H209.2C209.231 52.4345 209.246 52.9747 209.246 53.7243V59.0642H207.977V50.7949H209.909L212.083 56.302C212.248 56.7249 212.356 57.0401 212.406 57.2477H212.435C212.577 56.8133 212.692 56.4904 212.781 56.2789L214.995 50.7949H216.858V59.0642ZM231.032 59.0642H229.671V53.7128C229.671 53.2745 229.698 52.7382 229.752 52.1039H229.729C229.644 52.4653 229.569 52.7248 229.504 52.8824L227.036 59.0642H226.09L223.616 52.9285C223.547 52.7479 223.474 52.473 223.397 52.1039H223.374C223.405 52.4345 223.42 52.9747 223.42 53.7243V59.0642H222.152V50.7949H224.083L226.257 56.302C226.423 56.7249 226.53 57.0401 226.58 57.2477H226.609C226.751 56.8133 226.867 56.4904 226.955 56.2789L229.169 50.7949H231.032V59.0642ZM239.867 59.0642H238.361L237.618 56.9594H234.365L233.65 59.0642H232.151L235.247 50.7949H236.793L239.867 59.0642ZM237.254 55.8407L236.107 52.5422C236.072 52.4345 236.036 52.2615 235.997 52.0232H235.974C235.939 52.2423 235.901 52.4153 235.859 52.5422L234.723 55.8407H237.254ZM247.398 59.0642H245.795L244.474 56.8498C244.355 56.6461 244.238 56.4731 244.122 56.3308C244.011 56.1848 243.895 56.0656 243.776 55.9733C243.661 55.881 243.534 55.8138 243.396 55.7715C243.257 55.7292 243.102 55.708 242.929 55.708H242.375V59.0642H241.008V50.7949H243.73C244.118 50.7949 244.476 50.841 244.803 50.9333C245.13 51.0256 245.414 51.1659 245.656 51.3543C245.898 51.5388 246.087 51.7714 246.221 52.052C246.36 52.3288 246.429 52.6537 246.429 53.0266C246.429 53.3188 246.385 53.5879 246.296 53.8339C246.212 54.0761 246.089 54.2933 245.927 54.4855C245.77 54.6739 245.577 54.8354 245.351 54.9699C245.128 55.1045 244.876 55.2083 244.595 55.2813V55.3044C244.745 55.389 244.876 55.4831 244.987 55.5869C245.099 55.6869 245.204 55.7907 245.304 55.8983C245.404 56.006 245.502 56.129 245.599 56.2674C245.698 56.402 245.808 56.5596 245.927 56.7403L247.398 59.0642ZM242.375 51.9079V54.5951H243.517C243.728 54.5951 243.922 54.5624 244.099 54.4971C244.28 54.4317 244.436 54.3375 244.566 54.2145C244.697 54.0915 244.799 53.9415 244.872 53.7647C244.945 53.5879 244.982 53.3899 244.982 53.1707C244.982 52.7748 244.857 52.4653 244.607 52.2423C244.357 52.0193 243.997 51.9079 243.528 51.9079H242.375ZM254.623 59.0642H252.836L249.958 55.2813C249.85 55.1391 249.785 55.043 249.762 54.993H249.739V59.0642H248.367V50.7949H249.739V54.6816H249.762C249.808 54.597 249.874 54.5028 249.958 54.399L252.732 50.7949H254.375L251.129 54.7623L254.623 59.0642ZM262.379 59.0642H260.874L260.13 56.9594H256.878L256.163 59.0642H254.664L257.76 50.7949H259.306L262.379 59.0642ZM259.767 55.8407L258.62 52.5422C258.585 52.4345 258.548 52.2615 258.51 52.0232H258.487C258.452 52.2423 258.414 52.4153 258.372 52.5422L257.236 55.8407H259.767ZM269.161 51.3946L264.628 57.9051H269.103V59.0642H262.708V58.4356L267.258 51.9598H263.06V50.7949H269.161V51.3946ZM271.86 59.0642H270.447V50.7949H271.86V59.0642Z" fill="#32D74B"/>
</svg>
