<svg width="72" height="72" viewBox="0 0 72 72" fill="none" xmlns="http://www.w3.org/2000/svg">
<path d="M27.516 26C29.532 23.56 32.584 22 36 22C39.416 22 42.468 23.56 44.484 26C45.8113 27.6092 46.6536 29.5627 46.9128 31.6326C47.1719 33.7024 46.8372 35.8032 45.9476 37.6901C45.0581 39.5769 43.6503 41.1718 41.8887 42.2889C40.127 43.406 38.084 43.9991 35.998 43.9991C33.912 43.9991 31.869 43.406 30.1073 42.2889C28.3457 41.1718 26.9379 39.5769 26.0484 37.6901C25.1588 35.8032 24.8241 33.7024 25.0832 31.6326C25.3424 29.5627 26.1847 27.6092 27.512 26H27.516Z" fill="#242426"/>
<path d="M51 33C51 30.472 50.376 28.088 49.272 26H66C67.5913 26 69.1174 26.6321 70.2426 27.7574C71.3679 28.8826 72 30.4087 72 32V34C72 40.348 67.176 46.848 58.74 49.136C57.8731 47.5787 56.6057 46.2814 55.0691 45.3784C53.5324 44.4754 51.7823 43.9995 50 44H46.2C47.7161 42.5972 48.9253 40.8956 49.7515 39.0024C50.5776 37.1093 51.0027 35.0656 51 33Z" fill="#242426"/>
<path d="M50 48C50.7886 47.9979 51.5697 48.1517 52.2986 48.4524C53.0275 48.7532 53.6898 49.1951 54.2474 49.7527C54.8049 50.3102 55.2468 50.9725 55.5476 51.7014C55.8484 52.4303 56.0021 53.2115 56 54V56C56 63.884 48.56 72 36 72C23.44 72 16 63.884 16 56V54C15.9979 53.2115 16.1517 52.4303 16.4524 51.7014C16.7532 50.9725 17.1951 50.3102 17.7527 49.7527C18.3102 49.1951 18.9725 48.7532 19.7014 48.4524C20.4303 48.1517 21.2115 47.9979 22 48H50Z" fill="#242426"/>
<path d="M0 34C0 40.348 4.824 46.848 13.26 49.136C14.1269 47.5787 15.3943 46.2814 16.931 45.3784C18.4676 44.4754 20.2177 43.9995 22 44H25.8C24.2839 42.5972 23.0747 40.8956 22.2486 39.0024C21.4224 37.1093 20.9973 35.0656 21 33C21 30.472 21.624 28.088 22.732 26H6C4.4087 26 2.88258 26.6321 1.75736 27.7574C0.632141 28.8826 0 30.4087 0 32V34Z" fill="#242426"/>
<path d="M31 11C31 8.08262 29.8411 5.28472 27.7782 3.22183C25.7153 1.15893 22.9174 0 20 0C17.0826 0 14.2847 1.15893 12.2218 3.22183C10.1589 5.28472 9 8.08262 9 11C9 13.9174 10.1589 16.7153 12.2218 18.7782C14.2847 20.8411 17.0826 22 20 22C22.9174 22 25.7153 20.8411 27.7782 18.7782C29.8411 16.7153 31 13.9174 31 11Z" fill="#242426"/>
<path d="M63 11C63 8.08262 61.8411 5.28472 59.7782 3.22183C57.7153 1.15893 54.9174 0 52 0C49.0826 0 46.2847 1.15893 44.2218 3.22183C42.1589 5.28472 41 8.08262 41 11C41 13.9174 42.1589 16.7153 44.2218 18.7782C46.2847 20.8411 49.0826 22 52 22C54.9174 22 57.7153 20.8411 59.7782 18.7782C61.8411 16.7153 63 13.9174 63 11Z" fill="#242426"/>
</svg>
