<svg width="80" height="80" viewBox="0 0 80 80" fill="none" xmlns="http://www.w3.org/2000/svg">
<path d="M40 13.3333C43.5362 13.3333 46.9276 14.7381 49.4281 17.2386C51.9286 19.739 53.3333 23.1304 53.3333 26.6666C53.3333 30.2029 51.9286 33.5943 49.4281 36.0947C46.9276 38.5952 43.5362 40 40 40C36.4638 40 33.0724 38.5952 30.5719 36.0947C28.0714 33.5943 26.6667 30.2029 26.6667 26.6666C26.6667 23.1304 28.0714 19.739 30.5719 17.2386C33.0724 14.7381 36.4638 13.3333 40 13.3333ZM40 46.6666C54.7333 46.6666 66.6667 52.6333 66.6667 60V66.6666H13.3333V60C13.3333 52.6333 25.2667 46.6666 40 46.6666Z" fill="#242426"/>
</svg>
