<svg width="80" height="80" viewBox="0 0 80 80" fill="none" xmlns="http://www.w3.org/2000/svg">
<path d="M2.79065 41.2856C2.79065 36.7771 6.36038 33.1223 10.7639 33.1223C15.1673 33.1223 18.7371 36.7771 18.7371 41.2856V52.4726C18.7371 56.981 15.1673 60.6358 10.7639 60.6358C6.36038 60.6358 2.79065 56.981 2.79065 52.4726V41.2856Z" fill="#242426"/>
<path fill-rule="evenodd" clip-rule="evenodd" d="M0 41.2854C0 35.199 4.81914 30.265 10.7638 30.265C16.7085 30.265 21.5277 35.199 21.5277 41.2854V52.4724C21.5277 58.5588 16.7085 63.4928 10.7638 63.4928C4.81913 63.4928 0 58.5588 0 52.4724V41.2854ZM10.7638 35.9793C7.90157 35.9793 5.58125 38.3549 5.58125 41.2854V52.4724C5.58125 55.4029 7.90158 57.7785 10.7638 57.7785C13.6261 57.7785 15.9464 55.4029 15.9464 52.4724V41.2854C15.9464 38.3549 13.6261 35.9793 10.7638 35.9793Z" fill="#242426"/>
<path d="M61.2629 41.2856C61.2629 36.7771 64.8327 33.1223 69.2362 33.1223C73.6396 33.1223 77.2094 36.7771 77.2094 41.2856V52.4726C77.2094 56.981 73.6396 60.6358 69.2362 60.6358C64.8327 60.6358 61.2629 56.981 61.2629 52.4726V41.2856Z" fill="#242426"/>
<path fill-rule="evenodd" clip-rule="evenodd" d="M58.4724 41.2854C58.4724 35.199 63.2915 30.265 69.2362 30.265C75.1809 30.265 80 35.199 80 41.2854V52.4724C80 58.5588 75.1809 63.4928 69.2362 63.4928C63.2915 63.4928 58.4724 58.5588 58.4724 52.4724V41.2854ZM69.2362 35.9793C66.3739 35.9793 64.0536 38.3549 64.0536 41.2854V52.4724C64.0536 55.4029 66.3739 57.7785 69.2362 57.7785C72.0985 57.7785 74.4188 55.4029 74.4188 52.4724V41.2854C74.4188 38.3549 72.0985 35.9793 69.2362 35.9793Z" fill="#242426"/>
<path fill-rule="evenodd" clip-rule="evenodd" d="M13.5571 27.6277V33.122C13.5571 34.7 12.3077 35.9791 10.7665 35.9791C9.22524 35.9791 7.97583 34.7 7.97583 33.122V27.6193H10.7665C7.97583 27.6193 7.97583 27.6212 7.97583 27.6193L7.97584 27.6114L7.97588 27.6012L7.97607 27.5739L7.97725 27.4926C7.97851 27.4266 7.98086 27.3373 7.98523 27.2262C7.99397 27.0041 8.01082 26.6944 8.04327 26.3095C8.1081 25.5408 8.23573 24.4659 8.48759 23.1859C8.98933 20.6361 9.99648 17.2094 12.0325 13.7604C16.2133 6.67819 24.4482 0 40.0016 0C55.555 0 63.7899 6.67819 67.9706 13.7604C70.0067 17.2094 71.0138 20.6361 71.5156 23.1859C71.7674 24.4659 71.895 25.5408 71.9599 26.3095C71.9923 26.6944 72.0092 27.0041 72.0179 27.2262C72.0223 27.3373 72.0246 27.4266 72.0259 27.4926L72.0271 27.5739L72.0273 27.6012L72.0273 27.6114L72.0273 27.6156C72.0273 27.6175 72.0273 27.6193 69.2367 27.6193L72.0273 27.6156V33.122C72.0273 34.7 70.7779 35.9791 69.2367 35.9791C67.6955 35.9791 66.4461 34.7 66.4461 33.122L66.4461 27.6224L66.4457 27.604C66.4452 27.5763 66.444 27.5265 66.4412 27.4562C66.4357 27.3156 66.4239 27.0933 66.3993 26.8011C66.3499 26.2157 66.2492 25.356 66.0442 24.3145C65.6324 22.2214 64.8123 19.4575 63.194 16.7161C60.0659 11.4172 53.6833 5.71428 40.0016 5.71428C26.3198 5.71428 19.9372 11.4172 16.8091 16.7161C15.1908 19.4575 14.3708 22.2214 13.9589 24.3145C13.754 25.356 13.6532 26.2157 13.6038 26.8011C13.5792 27.0933 13.5675 27.3156 13.562 27.4562C13.5592 27.5265 13.558 27.5763 13.5574 27.604L13.5571 27.6277ZM66.4461 27.6276C66.4461 27.6292 66.4461 27.6289 66.4461 27.6276V27.6276Z" fill="#242426"/>
<path fill-rule="evenodd" clip-rule="evenodd" d="M61.2593 46.7721C62.8005 46.7721 64.0499 48.0513 64.0499 49.6292V49.7163C64.0499 53.777 64.0499 57.6656 63.7483 61.1452C63.4448 64.6465 62.8204 67.9752 61.4353 70.843C60.0106 73.7926 57.8259 76.1597 54.6213 77.7395C51.4919 79.2822 47.5431 79.9999 42.6551 79.9999C41.1139 79.9999 39.8645 78.7207 39.8645 77.1427C39.8645 75.5648 41.1139 74.2856 42.6551 74.2856C47.0692 74.2856 50.097 73.6276 52.2 72.5909C54.2278 71.5913 55.5314 70.1753 56.4323 68.3101C57.3727 66.363 57.9111 63.845 58.1889 60.64C58.4665 57.4381 58.4687 53.7911 58.4687 49.6292C58.4687 48.0513 59.7181 46.7721 61.2593 46.7721Z" fill="#242426"/>
</svg>
