<svg width="72" height="66" viewBox="0 0 72 66" fill="none" xmlns="http://www.w3.org/2000/svg">
<path fill-rule="evenodd" clip-rule="evenodd" d="M0.166687 11.5C0.166687 8.64892 1.29927 5.91462 3.31529 3.8986C5.33131 1.88259 8.06561 0.75 10.9167 0.75H61.0834C63.9344 0.75 66.6687 1.88259 68.6848 3.8986C70.7008 5.91462 71.8334 8.64892 71.8334 11.5V40.1667C71.8334 43.0177 70.7008 45.752 68.6848 47.7681C66.6687 49.7841 63.9344 50.9167 61.0834 50.9167H46.75V58.0833H50.3334C51.2837 58.0833 52.1952 58.4609 52.8672 59.1329C53.5392 59.8049 53.9167 60.7163 53.9167 61.6667C53.9167 62.617 53.5392 63.5285 52.8672 64.2005C52.1952 64.8725 51.2837 65.25 50.3334 65.25H21.6667C20.7163 65.25 19.8049 64.8725 19.1329 64.2005C18.4609 63.5285 18.0834 62.617 18.0834 61.6667C18.0834 60.7163 18.4609 59.8049 19.1329 59.1329C19.8049 58.4609 20.7163 58.0833 21.6667 58.0833H25.25V50.9167H10.9167C8.06561 50.9167 5.33131 49.7841 3.31529 47.7681C1.29927 45.752 0.166687 43.0177 0.166687 40.1667V11.5ZM39.5834 50.9167H32.4167V58.0833H39.5834V50.9167Z" fill="#242426"/>
</svg>
